HIERARCHY
ROOT Hips
{
  OFFSET 0 0 0
  CHANNELS 6 Xposition Yposition Zposition Zrotation Xrotation Yrotation
  JOINT Spine
  {
    OFFSET 0 10.1816 0.131521
    CHANNELS 3 Zrotation Xrotation Yrotation
    JOINT Spine1
    {
      OFFSET 0 10.0835 -1.0008
      CHANNELS 3 Zrotation Xrotation Yrotation
      JOINT Spine2
      {
        OFFSET 0 9.10001 -1.37342
        CHANNELS 3 Zrotation Xrotation Yrotation
        JOINT Neck
        {
          OFFSET 0 16.6717 -2.51617
          CHANNELS 3 Zrotation Xrotation Yrotation
          JOINT Head
          {
            OFFSET 0 9.61788 1.68501
            CHANNELS 3 Zrotation Xrotation Yrotation
            End Site
            {
              OFFSET 0 0 0
            }
          }
        }
        JOINT LeftShoulder
        {
          OFFSET 4.57045 10.946 -2.62799
          CHANNELS 3 Zrotation Xrotation Yrotation
          JOINT LeftArm
          {
            OFFSET 10.5924 -0.524583 -2.23212
            CHANNELS 3 Zrotation Xrotation Yrotation
            JOINT LeftForeArm
            {
              OFFSET 27.8415 -8.94286e-05 3.74589e-05
              CHANNELS 3 Zrotation Xrotation Yrotation
              JOINT LeftHand
              {
                OFFSET 28.3288 -1.74407e-05 3.78045e-05
                CHANNELS 3 Zrotation Xrotation Yrotation
                End Site
                {
                  OFFSET 0 0 0
                }
              }
            }
          }
        }
        JOINT RightShoulder
        {
          OFFSET -4.56997 10.9462 -2.62802
          CHANNELS 3 Zrotation Xrotation Yrotation
          JOINT RightArm
          {
            OFFSET -10.5928 -0.524798 -2.2321
            CHANNELS 3 Zrotation Xrotation Yrotation
            JOINT RightForeArm
            {
              OFFSET -27.8415 -3.30792e-05 1.16763e-05
              CHANNELS 3 Zrotation Xrotation Yrotation
              JOINT RightHand
              {
                OFFSET -28.3288 0 5.5816e-05
                CHANNELS 3 Zrotation Xrotation Yrotation
                End Site
                {
                  OFFSET 0 0 0
                }
              }
            }
          }
        }
      }
    }
  }
  JOINT RightUpLeg
  {
    OFFSET -8.2078 -6.75166 -1.59956
    CHANNELS 3 Zrotation Xrotation Yrotation
    JOINT RightLeg
    {
      OFFSET 0 -44.3705 0.286156
      CHANNELS 3 Zrotation Xrotation Yrotation
      JOINT RightFoot
      {
        OFFSET 0 -44.4277 -2.98379
        CHANNELS 3 Zrotation Xrotation Yrotation
        JOINT RightToeBase
        {
          OFFSET 0 -8.72867 10.7106
          CHANNELS 3 Zrotation Xrotation Yrotation
          End Site
          {
            OFFSET 0 0 0
          }
        }
      }
    }
  }
  JOINT LeftUpLeg
  {
    OFFSET 8.20778 -6.75171 -1.59956
    CHANNELS 3 Zrotation Xrotation Yrotation
    JOINT LeftLeg
    {
      OFFSET 0 -44.3705 0.284643
      CHANNELS 3 Zrotation Xrotation Yrotation
      JOINT LeftFoot
      {
        OFFSET 0 -44.4279 -2.98219
        CHANNELS 3 Zrotation Xrotation Yrotation
        JOINT LeftToeBase
        {
          OFFSET 0 -8.72867 10.7106
          CHANNELS 3 Zrotation Xrotation Yrotation
          End Site
          {
            OFFSET 0 0 0
          }
        }
      }
    }
  }
}
MOTION
Frames:	15
Frame Time:	0.0333333
-0.329883 93.17 192.911 -176.473 -51.2519 50.7288 10.5739 6.69837 1.75855 6.86454 0.498145 1.11874 6.84862 0.50549 1.203 3.31155 -13.7596 -2.00327 -2.00118 -20.7882 -14.536 16.1386 -1.66025 -23.7893 72.8847 -36.923 2.01149 -8.42215e-006 -8.1713e-008 -3.96325 60.7003 -28.9042 -35.2613 -16.6655 -2.33814 21.1842 13.5066 -53.9184 38.9639 -6.35809e-006 -1.81252e-006 62.3559 -113.127 35.9483 46.9105 -134.05 -45.2652 -110.103 0.107498 17.8189 1.72214 11.0005 -9.56678 0.367887 -0.369637 -9.2786 -0.0579732 -11.0224 -17.2447 2.42023 0.466449 31.3303 -2.64518 -15.8998 -3.31438 0.647489 7.51974e-006 -1.2467 -1.74954e-005 
-0.805051 89.8786 202.206 179.132 -62.1046 43.192 11.15 7.45912 1.65194 7.2005 1.23307 1.0768 7.18475 1.24062 1.16 4.03298 -12.7428 -2.25206 -0.637202 -19.0741 -14.9265 19.6887 -2.54959 -24.9404 70.3821 -24.8987 3.65923 9.61527e-006 -3.34422e-006 -10.5581 55.7625 -23.0644 -20.4907 -17.2604 -2.52259 22.3141 14.8372 -52.9759 33.5519 -1.9608e-005 -9.18406e-007 64.6104 -111.976 39.8166 39.8395 -136.902 -49.6269 -115.788 0.200797 25.8881 1.53824 -10.7516 -22.6086 -2.81353 3.90912e-006 -10.1371 3.18051e-006 -11.5882 -22.6455 1.96565 0.507359 34.7343 0.516857 -17.1258 -5.60489 0.492819 -2.38605e-006 0.689195 -8.65784e-008 
-0.898997 86.6311 211.292 169.659 -71.7006 31.002 11.8894 8.29123 1.24046 6.99803 1.72245 0.887342 6.9849 1.72796 0.965756 3.73808 -11.9013 -2.37698 -0.118497 -17.1307 -15.0678 20.2303 -2.63403 -24.0701 67.2323 -16.2458 5.65825 -9.10453e-006 4.7475e-006 -16.7607 49.1027 -16.5668 -6.94759 -17.8465 -2.54638 22.976 16.1764 -51.5437 34.6228 1.15763e-005 3.55335e-006 56.162 -104.697 39.2446 28.3839 -149.872 -48.613 -129.416 0.342995 47.895 0.672278 -15.6322 -27.4768 -4.3821 6.93489e-008 -9.32494 -0 -11.8675 -29.141 1.47435 0.374462 37.1905 6.05882 -16.4956 -9.82018 1.82289 1.46345e-005 -0.0920612 -1.20833e-005 
-0.520739 84.8326 219.843 146.335 -78.4268 5.85805 12.7685 9.36801 0.632957 6.62075 2.10992 0.546385 6.6133 2.11146 0.620163 2.59465 -11.3151 -2.2919 -0.947551 -15.5807 -14.8579 17.2703 -1.81506 -21.1269 65.8409 -13.3861 5.32872 -2.74355e-006 -1.1823e-006 -17.0825 43.719 -16.6531 2.33702 -17.5871 -2.40432 23.5268 14.901 -50.5404 41.7075 -1.05677e-005 -4.60291e-006 35.0647 -95.4209 30.2823 16.9179 -155.641 -48.4969 -136.817 0.169854 57.2674 -2.13537 -14.7438 -26.7985 -3.87435 -1.13166e-007 -8.71565 7.57042e-006 -13.3189 -36.8393 0.0179362 0.685825 38.3131 6.0777 -14.0392 -14.3679 5.36827 -2.09439e-005 -0.940423 -4.87358e-006 
0.239316 84.4077 227.821 100.223 -80.3821 -40.1369 13.4984 10.7045 -0.0664862 6.39467 2.63792 0.175927 6.3941 2.63446 0.246848 1.52066 -10.7761 -2.12103 -2.38427 -14.6691 -14.5113 12.6837 -0.650516 -17.8067 65.2715 -15.714 2.57564 1.72171e-005 -6.50847e-006 -14.5655 40.1298 -21.2994 5.95035 -15.8952 -1.9832 23.8119 10.1975 -51.9299 45.9894 -1.50558e-005 9.99632e-007 14.3668 -79.3552 18.0611 3.82793 -156.352 -48.3307 -138.664 -0.167146 60.6431 -4.92991 -12.4565 -22.818 -2.93799 4.12649e-006 -8.51014 -9.99803e-006 -15.132 -43.2505 -2.09638 1.0493 38.2058 5.75837 -13.1393 -15.5807 6.04916 -1.56289e-005 -1.05481 -3.22414e-005 
1.29361 84.7974 235.328 60.8991 -76.2548 -77.7755 13.726 12.0753 -0.624528 6.33797 3.31226 -0.0949026 6.34305 3.30456 -0.0256686 1.19195 -9.9826 -2.00971 -3.26096 -13.9689 -14.0962 9.01072 0.175912 -15.8246 62.9841 -20.3976 -1.57386 6.89169e-006 -1.06051e-005 -14.1583 34.9031 -23.9302 3.66329 -12.7708 -1.21439 23.3922 3.91139 -52.4511 38.0925 6.02752e-007 -3.5115e-006 11.9716 -67.4676 7.49335 -7.10534 -152.641 -49.2916 -135.55 -0.480615 60.5018 -7.41063 -9.90103 -17.1966 -2.04313 -1.77116e-006 -8.23113 6.65574e-006 -16.1985 -46.586 -3.57119 1.43095 37.3491 5.6581 -11.8953 -14.5118 9.60862 -1.28192e-005 -2.12597 -2.94073e-005 
2.52571 85.4266 242.512 43.1638 -69.2464 -93.6189 13.4262 13.0622 -1.08167 6.25716 3.9041 -0.334705 6.26773 3.8933 -0.268172 1.44109 -8.76462 -1.94225 -3.41126 -12.809 -13.3208 7.09557 0.495465 -15.423 57.9437 -24.233 -6.90926 1.09873e-005 4.4283e-006 -16.7566 27.7677 -20.265 -2.20166 -8.50244 -0.168 21.9516 -0.341169 -51.2738 20.152 1.21531e-005 -6.0419e-006 29.4172 -56.0864 1.30333 -17.1875 -146.713 -51.6424 -129.903 -0.787097 57.9192 -8.93789 -7.70803 -10.6434 -2.59912 5.83142e-007 -7.83474 5.90876e-006 -15.7233 -47.5274 -3.33026 1.84992 36.0787 6.10311 -9.28255 -11.1199 16.2105 1.14494e-006 -2.44958 -1.46978e-005 
3.7488 85.9431 249.343 35.0211 -61.7245 -100.084 12.7959 13.3955 -1.703 6.0226 4.23388 -0.712417 6.04137 4.21926 -0.65174 1.799 -7.13177 -1.82537 -3.63516 -10.7629 -12.0284 5.8713 0.629932 -15.6798 51.3057 -25.6255 -12.2585 1.11961e-005 7.82284e-006 -20.4491 21.747 -11.4847 -7.14433 -3.25179 0.983654 19.5344 -1.16585 -51.1579 3.83967 2.32309e-005 1.69734e-006 48.9684 -45.1529 -4.48691 -22.8483 -139.099 -54.442 -122.728 -1.03084 53.7736 -8.84284 -5.79206 -3.73545 -5.15013 -7.70755e-007 -7.59529 -1.65605e-006 -14.059 -47.1702 -1.28599 2.20373 34.576 6.49574 -8.61886 -4.10919 21.4741 -3.39673e-008 -1.65685 1.32118e-005 
4.8075 86.222 255.797 29.7636 -54.2667 -103.272 12.0401 13.2594 -2.50398 5.67785 4.29819 -1.21227 5.70672 4.27923 -1.15971 2.13558 -5.22348 -1.65473 -4.45179 -7.84747 -10.4114 4.17054 0.893494 -15.731 44.6106 -24.963 -15.0367 8.66119e-006 2.00566e-005 -24.4086 17.4717 -2.28218 -8.12838 2.84771 2.06084 16.5778 -0.0855581 -50.8507 -1.69275 -7.15447e-006 7.70069e-006 54.2798 -34.6897 -13.2725 -22.0621 -128.576 -56.455 -113.269 -1.13215 49.0076 -8.84881 -3.80406 2.67452 -7.09708 2.67087e-006 -7.73197 5.93097e-006 -12.3602 -45.2741 1.47184 2.39601 32.7381 6.61766 -11.1697 4.15852 25.0098 4.87279e-006 -1.47349 -1.91654e-005 
5.65608 86.1431 262.006 25.1463 -46.5993 -105.164 11.2992 13.1168 -3.17734 5.33769 4.15462 -1.64225 5.37491 4.13342 -1.59571 2.49786 -3.29741 -1.47016 -5.4912 -4.70662 -8.56197 1.89154 1.28109 -15.2618 38.6073 -23.4955 -14.0682 4.64356e-006 -1.41195e-005 -29.7618 13.9141 3.7181 -4.60176 9.18396 2.94431 13.7716 0.684405 -49.2972 0.768996 -1.16345e-005 5.78073e-006 46.9596 -23.3515 -23.2421 -16.8612 -115.043 -56.9769 -101.593 -1.13938 44.1933 -9.02344 -1.85584 8.48552 -8.36206 3.93954e-006 -8.19963 6.61273e-006 -10.8514 -41.2885 3.87614 2.65369 30.3686 6.59079 -14.3514 7.62285 29.408 -7.12987 -5.41962 -0.124115 
6.38536 85.64 267.987 21.1516 -38.6913 -106.155 10.5169 13.2435 -3.54944 5.03918 3.83101 -1.92465 5.08229 3.81188 -1.87825 2.76236 -1.71521 -1.19936 -5.99667 -2.48352 -6.36735 -0.410964 1.58214 -14.0969 33.307 -22.0632 -11.3547 3.45118e-006 -2.68253e-006 -37.648 11.4901 6.10015 1.75022 14.5178 3.58198 11.7196 0.351776 -48.0415 2.29755 4.94959e-006 9.87832e-007 39.4601 -12.3047 -29.1819 -10.6408 -100.391 -56.0083 -89.1677 -1.18824 39.2744 -9.21066 0.287498 13.8031 -10.4215 -6.72796e-006 -8.41932 -2.58884e-006 -6.99041 -37.6763 6.92192 3.17456 33.3907 8.43956 -18.3539 -4.71453 29.8547 -1.21153 -7.34688 -0.139577 
7.19833 85.2567 273.238 18.2498 -31.5426 -105.858 9.36187 13.552 -3.84135 4.68352 3.37547 -2.16955 4.73265 3.36208 -2.11889 2.78852 -0.788648 -0.746168 -5.57996 -1.96329 -3.97168 -2.39623 1.65711 -12.0491 27.7208 -20.9725 -9.98334 1.97897e-005 8.73149e-006 -47.6527 10.9851 7.24179 8.45961 17.6656 3.96365 10.5784 1.46061 -48.2556 -0.518926 -8.78494e-006 2.72547e-006 38.69 -4.72885 -29.4116 -5.6619 -85.9703 -53.4777 -76.5197 -1.30679 32.6635 -9.3523 3.71835 19.4718 -14.2981 1.70465e-006 -7.53844 1.66468e-006 -1.91827 -33.7522 11.0039 2.99308 34.9501 8.55542 -24.7444 -15.7287 26.113 -4.4096e-006 -4.86661 8.51747e-008 
8.21153 85.5654 277.455 16.5619 -26.074 -103.665 7.86549 13.8424 -4.15985 4.13653 2.89487 -2.44341 4.19248 2.88794 -2.39141 2.65814 -0.55305 -0.20787 -4.63694 -2.70689 -1.93644 -4.21298 1.55674 -9.34896 20.417 -20.4815 -10.9448 1.25941e-005 3.72364e-006 -58.1074 12.1042 9.53451 14.2371 18.3982 4.11859 10.0338 5.77379 -50.6736 -5.57605 -4.89033e-009 -2.52712e-006 41.8473 -0.500662 -27.4803 -1.38732 -73.5374 -49.1648 -64.8952 -1.31572 24.7023 -9.5614 7.67759 23.9593 -17.2052 -1.27944e-006 -6.73605 2.98133e-009 3.00396 -33.7573 16.2513 2.32901 38.9705 8.52328 -25.7961 -17.7714 21.0978 1.12534e-006 -5.12749e-005 -1.70307e-005 
9.18799 86.7865 280.831 15.7694 -22.0355 -99.4558 6.49386 13.964 -4.47193 3.41736 2.48052 -2.65976 3.47834 2.47778 -2.61619 2.52841 -0.735377 0.205459 -4.08969 -3.37769 -0.787799 -6.23401 1.4285 -6.73397 10.516 -20.1576 -12.8345 -7.29868e-006 -7.24052e-006 -67.341 14.8845 12.7865 18.9576 17.521 4.12536 9.66906 12.4853 -54.6212 -10.4755 9.81642e-007 1.90456e-006 44.0546 3.00487 -27.4953 3.45287 -64.9474 -43.7154 -56.2092 -0.962479 19.0899 -9.70604 11.3816 24.1219 -13.723 1.19367e-006 -8.76508 -4.67261e-006 5.65198 -34.6055 19.7912 1.67484 40.8584 9.0839 -22.7721 -15.3676 14.2683 7.63372e-007 -0.246437 -2.05446e-006 
9.82062 88.606 283.765 15.4796 -18.4271 -94.2362 5.75764 13.8561 -4.71463 2.75166 2.13474 -2.75635 2.81415 2.13283 -2.72894 2.44108 -0.999181 0.43885 -4.48841 -3.0731 -0.325125 -8.7125 1.3621 -4.82256 -1.29855 -18.6562 -13.3788 1.00832e-005 4.69572e-006 -74.4432 20.2841 14.7712 22.4546 16.0953 4.08167 9.34035 19.7113 -57.6527 -14.7819 5.04983e-006 1.2592e-006 44.2237 7.38757 -30.269 8.17065 -59.6638 -39.4169 -50.0438 -0.314311 19.4261 -9.02805 14.9421 17.8657 -3.48725 6.65147e-006 -11.3632 -3.17226e-006 5.7252 -34.3981 19.7635 1.24022 38.9139 9.38378 -19.3217 -12.5465 9.85455 -1.3602e-006 -1.82844 -1.90949e-005 
